<svg id="Слой_1" data-name="Слой 1" xmlns="http://www.w3.org/2000/svg" viewBox="0 0 1305.102 562.476">
  <title>404</title>
  <path d="M350.146,337.172c30.02,0,54.51,22.119,54.51,50.56,0,29.229-24.49,51.35-54.51,51.35H338.3V500.7c0,34.759-28.439,61.619-63.2,61.619-33.97,0-62.41-26.86-62.41-61.619v-61.62H85.5c-80.579,0-105.859-58.46-63.989-116.919L222.168,39.344C261.668-16.745,338.3-.155,338.3,66.2V337.172Zm-214.878,0h77.419V225.783Z" transform="translate(-1.555 -0.475)"/>
  <path d="M876.956,272.232v18.96c0,184.068-118.5,271.758-229.1,271.758-108.229,0-228.308-87.689-228.308-271.758v-18.96C419.55,88.954,539.629.475,647.857.475,758.457.475,876.956,88.954,876.956,272.232Zm-331.007,0v18.96c0,61.619,15.01,164.318,101.909,164.318s102.7-102.7,102.7-164.318v-18.96c0-61.62-15.8-164.318-102.7-164.318S545.949,210.613,545.949,272.232Z" transform="translate(-1.555 -0.475)"/>
  <path d="M1252.146,337.172c30.02,0,54.51,22.119,54.51,50.56,0,29.229-24.49,51.35-54.51,51.35H1240.3V500.7c0,34.759-28.439,61.619-63.2,61.619-33.97,0-62.41-26.86-62.41-61.619v-61.62H987.5c-80.579,0-105.859-58.46-63.989-116.919L1124.168,39.344c39.5-56.089,116.129-39.5,116.129,26.86V337.172Zm-214.878,0h77.419V225.783Z" transform="translate(-1.555 -0.475)"/>
</svg>
